<?xml version="1.0" ?><svg height="36px" version="1.1" viewBox="0 0 48 36" width="48px" xmlns="http://www.w3.org/2000/svg" xmlns:xlink="http://www.w3.org/1999/xlink"><title/><desc/><defs/><g fill="none" fill-rule="evenodd" id="Music" stroke="none" stroke-width="1"><g id="Icons" stroke="#979797" stroke-width="3" transform="translate(-302.000000, -49.000000)"><g id="Fast-Forward" transform="translate(305.000000, 52.000000)"><path d="M10.4904651,3.9651013 C14.014306,3.9651013 17.9143371,8.0256461 21.5511247,14.1552767 C22.9503066,16.5135305 24.1522274,18.9685388 24.8670668,20.9009553 C25.2373228,21.9018635 25.4701627,22.7415965 25.5431866,23.3977293 C25.6889584,24.7075162 25.2731507,25.8762341 23.7497424,25.8762341 L-4.04664427,25.8762341 C-5.55792801,25.8762341 -6.057131,24.6726202 -5.88753576,23.3699892 C-5.79976671,22.6958507 -5.52628409,21.8468847 -5.09192149,20.8314406 C-4.27340141,18.9179208 -2.89845118,16.4643795 -1.30294168,14.0852134 C2.75801346,8.02966366 7.00248841,3.9651013 10.4904651,3.9651013 Z" id="Triangle" transform="translate(9.824707, 14.920668) rotate(90.000000) translate(-9.824707, -14.920668) "/><path d="M32.4904651,3.9651013 C36.014306,3.9651013 39.9143371,8.0256461 43.5511247,14.1552767 C44.9503066,16.5135305 46.1522274,18.9685388 46.8670668,20.9009553 C47.2373228,21.9018635 47.4701627,22.7415965 47.5431866,23.3977293 C47.6889584,24.7075162 47.2731507,25.8762341 45.7497424,25.8762341 L17.9533557,25.8762341 C16.442072,25.8762341 15.942869,24.6726202 16.1124642,23.3699892 C16.2002333,22.6958507 16.4737159,21.8468847 16.9080785,20.8314406 C17.7265986,18.9179208 19.1015488,16.4643795 20.6970583,14.0852134 C24.7580135,8.02966366 29.0024884,3.9651013 32.4904651,3.9651013 Z" id="Triangle" transform="translate(31.824707, 14.920668) rotate(90.000000) translate(-31.824707, -14.920668) "/></g></g></g></svg>